<svg xmlns="http://www.w3.org/2000/svg" width="748" height="649" viewBox="0 0 748 649" version="1.1">
	<path d="M 331.500 3.397 C 328.750 4.687, 323.575 7.110, 320 8.781 C 316.425 10.451, 310.159 12.326, 306.075 12.945 C 297.222 14.289, 293.349 15.988, 288.580 20.620 C 284.135 24.937, 283.303 28.011, 285.390 32.409 C 288.342 38.631, 287.769 39.661, 280.668 40.897 C 277.186 41.504, 273.020 42, 271.411 42 C 269.803 42, 266.915 42.461, 264.993 43.024 C 263.072 43.588, 257.607 44.908, 252.848 45.959 C 243.819 47.952, 225.528 56.658, 215.748 63.618 C 213.134 65.478, 210.690 67, 210.317 67 C 208.959 67, 194.656 78.509, 190.138 83.237 C 187.012 86.508, 184.522 88.202, 182.500 88.432 C 158.953 91.116, 156.687 91.839, 142 101.346 C 138.975 103.304, 136.008 105.329, 135.406 105.846 C 134.804 106.364, 132.892 107.522, 131.156 108.419 C 129.420 109.317, 128 110.459, 128 110.958 C 128 111.457, 127.086 112.155, 125.968 112.510 C 121.976 113.777, 105.909 127.415, 91.111 142.098 C 87.223 145.955, 82 152.136, 82 152.879 C 82 153.325, 81.051 154.547, 79.892 155.595 C 78.732 156.643, 76.716 159.606, 75.411 162.179 C 74.106 164.753, 72.569 167.148, 71.997 167.502 C 71.424 167.856, 69.081 170.700, 66.791 173.823 C 64.500 176.945, 62.260 179.650, 61.813 179.833 C 61.366 180.017, 61 180.734, 61 181.428 C 61 182.121, 59.876 183.996, 58.501 185.594 C 57.127 187.193, 56.002 188.981, 56.001 189.568 C 56.001 190.156, 54.425 192.406, 52.501 194.568 C 50.576 196.731, 49.001 198.881, 49.001 199.346 C 49 199.811, 48.158 201.386, 47.129 202.846 C 44.398 206.719, 28.727 238.243, 25.179 247 C 22.378 253.913, 19.111 263.409, 13.828 280 C 11.665 286.793, 9.665 295.998, 7.963 307 C 7.410 310.575, 6.340 316.650, 5.585 320.500 C 4.830 324.350, 4.173 328.175, 4.124 329 C 4.076 329.825, 3.564 333.200, 2.987 336.500 C 0.842 348.776, 1.095 379.737, 3.469 395.500 C 3.718 397.150, 4.399 403.450, 4.983 409.500 C 7.238 432.866, 7.843 437.937, 8.504 439.006 C 8.880 439.615, 9.550 442.450, 9.993 445.306 C 10.436 448.163, 11.475 453.200, 12.302 456.500 C 13.129 459.800, 14.362 465.200, 15.042 468.500 C 16.410 475.143, 23.237 498.884, 25.641 505.361 C 29.615 516.065, 34.464 527.644, 35.541 529 C 36.196 529.825, 37.047 531.823, 37.432 533.439 C 37.818 535.055, 39.003 537.600, 40.066 539.093 C 41.130 540.587, 42 542.017, 42 542.272 C 42 543.324, 51.401 556.759, 54.404 560 C 68.441 575.147, 100.678 605.525, 105.865 608.493 C 106.833 609.047, 109.298 610.802, 111.344 612.392 C 121.631 620.394, 137.589 627.435, 166 636.508 C 170.259 637.868, 182.259 640.737, 199 644.398 C 210.568 646.928, 232.557 648.119, 246.479 646.970 C 275.667 644.561, 299.067 641.059, 306.500 637.988 C 307.600 637.534, 309.850 636.904, 311.500 636.589 C 313.150 636.274, 317.650 635.113, 321.500 634.009 C 334.833 630.186, 343.520 628.077, 348 627.575 C 350.475 627.298, 354.858 626.618, 357.741 626.063 C 372.332 623.256, 400.935 622.719, 441 624.500 C 505.677 627.375, 538.607 624.380, 577 612.135 C 580.575 610.994, 584.625 609.843, 586 609.575 C 591.290 608.547, 598.737 606.111, 604.395 603.557 C 607.638 602.094, 613.038 599.996, 616.395 598.895 C 619.753 597.794, 623.400 596.386, 624.500 595.767 C 625.600 595.147, 634.150 590.743, 643.500 585.981 C 652.850 581.218, 662.075 576.485, 664 575.463 C 665.925 574.441, 667.950 573.569, 668.500 573.524 C 672.743 573.180, 682.920 569, 679.514 569 C 678.111 569, 688.210 560.088, 690.421 559.376 C 693.481 558.390, 703.194 552.026, 706.837 548.620 C 713.477 542.411, 715.511 538.136, 716.572 528.161 C 716.836 525.683, 719.317 519.248, 722.356 513.161 C 725.284 507.297, 728.480 500.250, 729.459 497.500 C 730.438 494.750, 732.295 489.575, 733.585 486 C 737.268 475.795, 740.021 457.937, 741.601 434 C 741.946 428.775, 742.365 424.264, 742.533 423.976 C 742.904 423.340, 743.700 412.038, 744.927 390 C 746.079 369.293, 745.754 361.636, 742.595 335 C 742.366 333.075, 741.889 327.900, 741.533 323.500 C 740.071 305.407, 735.078 283.336, 729.938 272.247 C 728.344 268.807, 724.792 259.264, 722.046 251.039 C 717.247 236.670, 708.758 217.541, 705.066 212.777 C 703.482 210.734, 700.094 204.988, 696.351 198 C 695.615 196.625, 695.010 194.983, 695.006 194.350 C 695.003 193.718, 693.200 190.805, 691 187.877 C 688.800 184.949, 687 182.149, 687 181.654 C 687 181.158, 684.975 177.418, 682.500 173.341 C 680.025 169.265, 678 165.603, 678 165.205 C 678 164.807, 677.105 163.922, 676.012 163.239 C 674.918 162.557, 672.892 160.205, 671.509 158.014 C 665.581 148.624, 635.923 119.368, 625.259 112.392 C 620.727 109.426, 616.600 107, 616.090 107 C 615.580 107, 613.888 106.352, 612.331 105.560 C 608.611 103.668, 590.566 98.240, 585.487 97.485 C 583.294 97.160, 579.587 96.634, 577.250 96.317 C 574.913 95.999, 573 95.431, 573 95.053 C 573 94.178, 534.343 94.483, 531 95.384 C 529.625 95.755, 525.125 96.269, 521 96.526 C 516.875 96.783, 512.150 97.239, 510.500 97.538 C 498.692 99.680, 499.662 99.981, 490.603 91.361 C 486.059 87.038, 481.108 82.494, 479.602 81.265 C 475.189 77.663, 478.230 75.534, 490 73.986 C 503.418 72.221, 508 69.913, 508 64.919 C 508 61.460, 505.163 59.925, 490.500 55.454 C 485.550 53.945, 480.360 51.914, 478.966 50.941 C 477.573 49.968, 474.648 48.838, 472.466 48.430 C 470.285 48.022, 463.965 45.561, 458.423 42.961 C 452.881 40.362, 446.836 37.903, 444.991 37.498 C 443.145 37.093, 440.255 36.006, 438.568 35.084 C 436.880 34.162, 433.475 32.786, 431 32.026 C 428.525 31.266, 425.825 30.108, 425 29.452 C 424.175 28.796, 419.675 26.966, 415 25.385 C 408.012 23.023, 404.813 22.510, 397.015 22.506 C 388.926 22.501, 387.483 22.253, 387.205 20.817 C 387.026 19.892, 387.806 18.639, 388.940 18.032 C 391.909 16.443, 391.479 14.263, 387.750 11.989 C 383.747 9.548, 383.863 9.547, 381.166 12.060 C 378.813 14.252, 376.097 14.026, 373.968 11.461 C 373.301 10.658, 371.685 10, 370.378 10 C 369.070 10, 368 9.599, 368 9.108 C 368 8.618, 366.790 7.913, 365.311 7.542 C 363.832 7.171, 361.470 6.061, 360.061 5.076 C 357.786 3.484, 353.960 2.783, 340 1.397 C 337.796 1.179, 334.649 1.919, 331.500 3.397 M 331.299 19.070 C 329.539 19.599, 327.823 20.478, 327.485 21.024 C 326.837 22.073, 329.238 25, 330.748 25 C 331.238 25, 332.549 26.013, 333.660 27.250 C 337.926 32, 353.564 44.841, 356.961 46.383 C 358.315 46.997, 360.791 48.991, 362.463 50.814 C 364.594 53.135, 366.028 53.926, 367.252 53.457 C 370.112 52.359, 369.335 50.758, 362.451 43.562 C 358.849 39.797, 354.249 34.700, 352.230 32.236 C 341.263 18.852, 338.276 16.973, 331.299 19.070 M 352.004 19.250 C 352.007 19.938, 354.032 22.731, 356.504 25.458 C 361.268 30.711, 362.660 29.798, 359.250 23.657 C 356.542 18.779, 351.993 16.013, 352.004 19.250 M 299.250 26.084 C 297.132 26.886, 296.015 30, 297.845 30 C 298.891 30, 302.476 26.130, 301.911 25.610 C 301.685 25.403, 300.488 25.616, 299.250 26.084 M 393.423 34.339 C 392.689 36.254, 396.651 44, 398.365 44 C 399.094 44, 400.378 43.212, 401.218 42.250 C 402.495 40.788, 402.548 39.924, 401.540 37 C 400.546 34.115, 399.776 33.445, 397.160 33.186 C 395.069 32.979, 393.794 33.373, 393.423 34.339 M 409.676 34.716 C 409.386 35.184, 413.197 41.628, 418.144 49.034 C 423.091 56.440, 428.775 65.200, 430.775 68.500 C 432.775 71.800, 435.009 75.109, 435.739 75.854 C 436.469 76.599, 437.918 78.879, 438.960 80.921 C 440.002 82.963, 441.636 85.279, 442.593 86.067 C 444.196 87.388, 444.273 87.266, 443.587 84.510 C 443.177 82.866, 442.494 81.291, 442.070 81.010 C 440.849 80.202, 439 76.288, 439 74.510 C 439 73.618, 437.650 70.167, 436 66.841 C 434.350 63.516, 433 60.414, 433 59.948 C 433 57.967, 422.910 37.916, 421.761 37.614 C 420.253 37.217, 412.975 34.894, 411.351 34.291 C 410.719 34.056, 409.965 34.247, 409.676 34.716 M 328.831 37.750 C 332.881 43.414, 340.924 50.150, 343.241 49.819 C 346.789 49.313, 346.352 46.717, 342.262 44.009 C 340.193 42.639, 338.275 41.265, 338 40.956 C 336.160 38.888, 330.015 35, 328.588 35 C 327.015 35, 327.036 35.241, 328.831 37.750 M 372 36 C 372 36.550, 372.414 37, 372.921 37 C 373.427 37, 374.124 38.237, 374.470 39.750 C 374.816 41.263, 375.997 43.588, 377.096 44.918 C 378.900 47.103, 379.242 47.186, 380.644 45.785 C 381.936 44.492, 381.986 43.839, 380.941 41.867 C 378.541 37.341, 372 33.049, 372 36 M 311 37.594 C 311 38.470, 311.900 39.423, 313 39.710 C 314.100 39.998, 315 40.610, 315 41.070 C 315 41.530, 316.575 42.654, 318.500 43.567 C 320.425 44.480, 322.021 45.739, 322.046 46.364 C 322.072 46.989, 323.212 48.400, 324.580 49.500 C 325.948 50.600, 328.739 52.962, 330.783 54.749 C 334.585 58.073, 338 59.007, 338 56.722 C 338 55.322, 328.860 46.923, 320.084 40.261 C 314.259 35.838, 311 34.881, 311 37.594 M 434 43.865 C 434 44.341, 434.835 45.803, 435.855 47.115 C 436.875 48.427, 438.248 51.152, 438.906 53.170 C 439.564 55.189, 440.754 57.381, 441.551 58.042 C 442.348 58.704, 443 59.842, 443 60.573 C 443 61.303, 443.614 62.260, 444.365 62.700 C 445.115 63.140, 446.427 64.850, 447.280 66.500 C 448.133 68.150, 449.673 70.400, 450.702 71.500 C 451.732 72.600, 453.207 75.075, 453.980 77 C 455.339 80.382, 456.684 81.953, 458.250 81.985 C 459.673 82.014, 458.992 80.144, 456.500 77.182 C 454.960 75.352, 453.982 72.923, 453.953 70.856 C 453.927 69.010, 452.464 63.257, 450.703 58.072 L 447.500 48.643 442.020 45.822 C 436.399 42.927, 434 42.342, 434 43.865 M 402.963 49.544 C 401.901 50.824, 402.076 51.809, 403.987 55.294 C 409.826 65.943, 419.470 81.089, 421.748 83.185 C 423.940 85.203, 424.124 85.243, 423.180 83.500 C 422.584 82.400, 421.328 79.700, 420.388 77.500 C 419.447 75.300, 416.450 68.775, 413.727 63 C 411.004 57.225, 408.388 51.487, 407.913 50.250 C 406.911 47.638, 404.796 47.336, 402.963 49.544 M 275.750 49.689 C 273.129 50.374, 273.521 51.202, 279.250 57.098 C 282.137 60.069, 285.493 63.625, 286.707 65 C 287.921 66.375, 292.080 70.622, 295.950 74.439 C 299.819 78.255, 303.228 82.144, 303.526 83.081 C 303.823 84.018, 305.402 85.338, 307.033 86.014 C 308.665 86.690, 310 87.624, 310 88.090 C 310 88.556, 310.749 88.650, 311.664 88.299 C 312.783 87.869, 313.091 88.043, 312.605 88.830 C 312.207 89.474, 312.359 90, 312.941 90 C 314.416 90, 314.277 89.326, 312.158 86.210 C 307.518 79.385, 303 71.950, 303 71.138 C 303 70.647, 302.264 69.634, 301.364 68.887 C 300.464 68.140, 298.596 65.737, 297.213 63.546 C 295.830 61.355, 293.192 58.228, 291.349 56.597 C 289.368 54.843, 288 52.686, 288 51.316 C 288 49.174, 287.605 49.009, 282.750 49.116 C 279.863 49.180, 276.712 49.438, 275.750 49.689 M 301.543 50.931 C 301.226 51.443, 301.425 52.144, 301.984 52.490 C 302.543 52.835, 303 52.416, 303 51.559 C 303 49.802, 302.400 49.544, 301.543 50.931 M 261.531 52.950 C 261.208 53.472, 261.827 54.372, 262.906 54.950 C 265.507 56.342, 265.571 56.319, 265.571 54 C 265.571 51.929, 262.634 51.166, 261.531 52.950 M 459 53.812 C 459 56.017, 464.254 66, 465.415 66 C 466.446 66, 469 60.057, 469 57.660 C 469 56.947, 464.481 54.556, 461.250 53.559 C 460.012 53.178, 459 53.291, 459 53.812 M 249.012 55.972 C 247.773 56.755, 248.061 57.468, 250.732 60.223 C 254.573 64.187, 260 67.578, 260 66.015 C 260 65.411, 259.069 63.923, 257.931 62.708 C 256.794 61.494, 255.612 59.263, 255.306 57.750 C 254.720 54.854, 251.997 54.084, 249.012 55.972 M 387.571 57.571 C 385.515 59.628, 385.560 64.390, 387.652 66.126 C 388.561 66.881, 390.987 69.748, 393.043 72.499 C 400.497 82.473, 403.885 84.636, 400.538 77.286 C 394.997 65.115, 390.413 56.011, 389.821 56.006 C 389.448 56.003, 388.436 56.707, 387.571 57.571 M 473.770 63.097 C 475.355 67.131, 475.442 67.185, 479.344 66.561 C 486.740 65.378, 487.064 64.403, 481 61.580 C 477.975 60.172, 474.749 59.015, 473.830 59.010 C 472.281 59.001, 472.276 59.294, 473.770 63.097 M 310 61.645 C 310 62.170, 310.540 63.140, 311.200 63.800 C 311.860 64.460, 312.098 65, 311.730 65 C 311.064 65, 314.177 68.679, 321.140 76.124 C 323.142 78.264, 325.515 81.137, 326.413 82.508 C 329.310 86.929, 334.265 85.391, 333.173 80.410 C 332.421 76.981, 325.211 68, 323.210 68 C 321.533 68, 313.999 64.206, 311.750 62.229 C 310.788 61.382, 310 61.120, 310 61.645 M 365.750 63.203 C 360.957 64.476, 360.661 67.695, 365 71.347 C 366.650 72.735, 368 74.208, 368 74.621 C 368 75.034, 369.717 77.425, 371.815 79.936 C 373.913 82.446, 377.817 87.649, 380.491 91.498 C 386.480 100.118, 387.348 101, 389.845 101 C 393 101, 392.889 98.998, 389.343 92.018 C 387.522 88.433, 383.471 80.213, 380.341 73.750 C 374.082 60.828, 374.246 60.946, 365.750 63.203 M 227.624 65.538 C 227.239 66.540, 227.813 67.372, 229.267 67.922 C 232.109 68.997, 232.428 68.668, 231.046 66.086 C 229.724 63.615, 228.440 63.410, 227.624 65.538 M 402.651 69.089 C 403.017 70.965, 403.696 72.650, 404.159 72.833 C 404.621 73.017, 405 73.663, 405 74.269 C 405 74.875, 405.822 76.300, 406.827 77.436 C 407.832 78.571, 410.124 83.100, 411.921 87.500 C 413.717 91.900, 415.984 96.400, 416.957 97.500 C 423.454 104.843, 426.928 117.024, 422.752 117.815 C 421.012 118.144, 418 115.913, 418 114.294 C 418 113.827, 417.212 112.734, 416.250 111.867 C 413.892 109.741, 405.746 100.173, 404.500 98.066 C 402.671 94.974, 397.550 88.545, 394.090 85 C 392.212 83.075, 391.151 82.175, 391.734 83 C 392.316 83.825, 393.258 86.208, 393.828 88.297 C 394.398 90.385, 396.973 95.690, 399.551 100.087 C 404.568 108.645, 414.076 118.109, 420.786 121.224 C 424.860 123.115, 432.522 123.582, 433.500 122 C 433.840 121.450, 434.991 121, 436.059 121 C 437.127 121, 438 120.338, 438 119.529 C 438 118.054, 426.314 101.792, 424.804 101.167 C 424.362 100.983, 424 100.403, 424 99.876 C 424 99.018, 420.314 93.256, 418.961 92 C 417.554 90.693, 410 78.901, 410 78.011 C 410 77.455, 409.550 77, 409 77 C 408.450 77, 407.992 76.438, 407.982 75.750 C 407.972 75.063, 406.619 72.515, 404.975 70.089 L 401.985 65.677 402.651 69.089 M 422.479 68.750 C 422.860 69.713, 423.315 71.198, 423.490 72.050 C 423.665 72.903, 425.280 76.278, 427.078 79.550 C 428.876 82.823, 432.219 89.100, 434.507 93.500 C 439.959 103.987, 444.794 111, 446.571 111 C 448.609 111, 448.335 109.024, 445.746 105.064 C 441.439 98.474, 439.640 95.466, 437.034 90.500 C 434.315 85.319, 434.081 84.928, 426.999 73.750 C 422.819 67.154, 421.089 65.240, 422.479 68.750 M 341 69.410 C 341 71.050, 346.020 79, 347.055 79 C 347.440 79, 349.874 81.588, 352.463 84.750 C 358.918 92.633, 368.868 103, 369.981 103 C 371.033 103, 369.300 97.260, 367.565 95 C 366.932 94.175, 365.762 92.150, 364.966 90.500 C 364.170 88.850, 362.165 85.239, 360.509 82.476 C 358.854 79.712, 357.006 76.562, 356.402 75.476 C 355.798 74.389, 354.259 72.971, 352.983 72.323 C 351.706 71.676, 350.265 70.439, 349.781 69.573 C 348.621 67.501, 341 67.360, 341 69.410 M 201.524 85.160 C 200.136 86.252, 199 87.478, 199 87.886 C 199 88.834, 218.053 90.724, 218.605 89.831 C 219.297 88.710, 216.024 86.040, 213.180 85.404 C 211.706 85.075, 209.048 84.439, 207.274 83.990 C 204.731 83.347, 203.514 83.595, 201.524 85.160 M 449.644 84.768 C 449.078 85.684, 449.298 86.166, 455.464 97.500 C 460.124 106.066, 460.680 106.720, 462.099 105.301 C 463.584 103.816, 462.608 101.198, 459.007 97 C 457.356 95.075, 455.991 93.050, 455.975 92.500 C 455.923 90.805, 450.219 83.837, 449.644 84.768 M 296.500 86.994 C 300.018 91.244, 302.884 94, 303.786 94 C 304.268 94, 305.269 95.134, 306.011 96.520 C 306.955 98.285, 307.675 98.725, 308.412 97.988 C 309.531 96.869, 302.828 89.836, 297.342 86.372 L 294.500 84.578 296.500 86.994 M 467.519 86.969 C 467.160 87.550, 467.486 89.268, 468.244 90.787 C 469.001 92.305, 470.494 96.328, 471.561 99.725 C 473.369 105.485, 473.669 105.861, 476 105.287 C 480.949 104.070, 485 101.946, 485 100.569 C 485 99.094, 476.260 91.033, 471.158 87.803 C 469.205 86.567, 467.946 86.278, 467.519 86.969 M 345 87.715 C 345 88.523, 347.789 92.969, 348.944 94 C 349.251 94.275, 350.104 95.669, 350.839 97.098 C 353.123 101.539, 356.639 105, 358.866 105 C 360.040 105, 360.991 104.662, 360.980 104.250 C 360.952 103.195, 345 86.688, 345 87.715 M 166.500 98.193 C 162.397 99.514, 161.580 99.745, 161 99.750 C 158.720 99.769, 138.336 112.505, 128.623 119.978 C 125.391 122.465, 120.891 125.797, 118.623 127.382 C 109.272 133.919, 92.932 151.092, 82.354 165.500 C 75.111 175.367, 76.396 173.523, 56.918 202 C 54.473 205.575, 50.719 212.100, 48.576 216.500 C 46.433 220.900, 44.332 225.175, 43.906 226 C 34.524 244.210, 30.498 253.808, 26.500 267.500 C 25.054 272.450, 22.750 279.791, 21.380 283.814 C 20.010 287.837, 18.715 292.337, 18.503 293.814 C 18.290 295.291, 16.716 304.375, 15.004 314 C 9.736 343.625, 8.769 353.049, 9.464 368 C 10.246 384.804, 10.739 390.615, 12.570 404.578 C 13.368 410.671, 14.267 418.546, 14.568 422.078 C 15.797 436.538, 21.527 463.131, 28.341 486 C 31.246 495.752, 36.553 511.553, 37.913 514.500 C 47.246 534.727, 53.487 545.305, 60.899 553.464 C 64.372 557.286, 83.656 576.544, 95 587.518 C 107.230 599.349, 124.847 611.370, 138.508 617.205 C 147.999 621.260, 178.383 630.565, 189 632.669 C 190.375 632.942, 195.550 634.003, 200.500 635.027 C 212.882 637.589, 221.565 638.401, 234.708 638.226 C 253.705 637.974, 291.114 633.361, 301.433 629.997 C 311.438 626.736, 317.529 625, 318.965 625 C 319.864 625, 321.028 624.610, 321.550 624.134 C 322.555 623.217, 335.154 620.165, 348.500 617.605 C 360.999 615.208, 394.844 611.997, 407.259 612.031 C 413.441 612.047, 424.125 612.487, 431 613.007 C 437.875 613.527, 456.100 614.241, 471.500 614.593 C 494.239 615.114, 502.318 614.921, 514.500 613.566 C 543.869 610.301, 550.949 608.983, 576.500 602.025 C 606.513 593.853, 642.450 577.777, 673.176 558.778 C 677.136 556.329, 685 548.274, 685 546.667 C 685 545.967, 688.459 541.911, 695.963 533.812 C 706.838 522.075, 709.645 516.735, 707.984 510.943 C 706.732 506.579, 707.654 504.977, 711.252 505.260 C 713.952 505.473, 714.554 504.989, 716.543 501 C 721.769 490.525, 727.509 470.543, 728.465 459.500 C 728.799 455.650, 729.493 448.900, 730.008 444.500 C 730.523 440.100, 731.187 433.800, 731.483 430.500 C 731.780 427.200, 732.443 420, 732.957 414.500 C 735.344 388.972, 735.726 363.648, 733.931 350 C 732.653 340.290, 732.354 337.429, 731.522 327 C 731.193 322.875, 730.491 316.688, 729.962 313.250 C 729.433 309.813, 728.591 304.345, 728.090 301.100 C 727.248 295.642, 723.564 283.823, 721.981 281.500 C 721.606 280.950, 720.052 276.900, 718.529 272.500 C 717.006 268.100, 714.950 262.670, 713.961 260.434 C 712.972 258.198, 711.388 253.704, 710.441 250.446 C 709.494 247.189, 708.383 243.844, 707.970 243.012 C 695.110 217.059, 687.531 202.531, 683.186 195.500 C 681.487 192.750, 679.314 188.925, 678.358 187 C 672.317 174.841, 661.276 160.375, 644.152 142.184 C 632.036 129.314, 621.857 121.388, 611 116.373 C 609.075 115.483, 606.732 114.369, 605.794 113.897 C 604.855 113.424, 602.268 112.747, 600.044 112.391 C 597.820 112.035, 596 111.402, 596 110.983 C 596 110.565, 594.313 109.875, 592.250 109.451 C 590.188 109.026, 588.050 108.535, 587.500 108.358 C 579.002 105.635, 573.894 105.140, 552.946 105.010 C 526.154 104.844, 505.624 107.467, 501.509 111.582 C 498.596 114.495, 489.380 119, 486.333 119 C 485.072 119, 482.344 119.637, 480.270 120.415 C 478.197 121.193, 475.153 122.129, 473.506 122.495 C 469.928 123.291, 467.804 124.875, 468.597 126.157 C 469.363 127.397, 467.130 130, 465.301 130 C 464.501 130, 462.481 128.635, 460.814 126.967 C 457.686 123.840, 454.131 123.635, 453.875 126.567 C 453.806 127.355, 453.637 128.450, 453.500 129 C 453.363 129.550, 453.194 132.925, 453.125 136.500 C 452.981 144.013, 450.956 147, 446.011 147 C 441.931 147, 433.727 143.761, 429.766 140.587 C 427.970 139.148, 426.022 137.588, 425.437 137.120 C 424.852 136.653, 423.333 135.713, 422.060 135.032 C 420.018 133.939, 419.463 134.099, 417.333 136.397 C 416.005 137.829, 414.600 139.006, 414.210 139.013 C 413.819 139.020, 410.089 135.420, 405.921 131.013 C 400.975 125.784, 397.587 123, 396.171 123 C 393.859 123, 393.296 124.896, 395.078 126.678 C 395.671 127.271, 396.009 129.049, 395.828 130.628 C 395.347 134.836, 392.172 134.846, 387.463 130.656 C 383.082 126.758, 381.637 126.885, 379.468 131.359 C 378.630 133.086, 376.670 136.038, 375.112 137.917 C 372.763 140.750, 371.651 141.311, 368.611 141.197 C 364.289 141.034, 358.999 137.353, 355.915 132.362 C 354.751 130.479, 352.082 128.062, 349.983 126.992 C 346.254 125.089, 342 120.324, 342 118.050 C 342 117.423, 340.895 115.805, 339.545 114.455 C 336.247 111.156, 327.188 110.869, 325.232 114 C 323.730 116.405, 321.715 116.566, 319.937 114.424 C 318.443 112.624, 317.522 112.727, 300 116.652 C 291.834 118.481, 285.310 120.761, 277.500 124.516 C 257.733 134.019, 255.261 134.639, 252.557 130.777 C 250.419 127.725, 250.605 124.282, 252.977 123.012 C 256.326 121.220, 257.166 118.545, 255.926 113.620 C 254.910 109.584, 254.359 109, 249.772 107.094 C 247.001 105.942, 244.299 105, 243.768 105 C 243.237 105, 241.384 104.374, 239.651 103.609 C 230.797 99.702, 227.576 98.896, 223.581 99.588 C 221.337 99.977, 218.600 100.443, 217.500 100.623 C 216.400 100.804, 212.350 101.674, 208.500 102.558 C 204.650 103.442, 197.071 104.331, 191.657 104.535 C 182.347 104.884, 181.683 104.774, 179.407 102.498 C 178.083 101.174, 177 99.449, 177 98.663 C 177 96.969, 171.121 96.706, 166.500 98.193 M 291.440 99.618 C 291.890 101.408, 291.559 102.830, 290.394 104.118 C 288.188 106.555, 287.753 106.505, 284.034 103.376 C 282.319 101.932, 280.793 100.920, 280.644 101.126 C 280.494 101.332, 279.414 102.766, 278.242 104.314 C 275.192 108.343, 276.260 110, 281.907 110 C 284.488 110, 287.027 109.628, 287.550 109.174 C 288.072 108.720, 290.460 107.732, 292.856 106.979 C 298.379 105.243, 298.974 103.626, 295.443 99.940 C 291.958 96.303, 290.580 96.192, 291.440 99.618 M 376 98.500 C 376 99.325, 376.900 100.900, 378 102 C 379.100 103.100, 380 104.450, 380 105 C 380 105.550, 380.691 106, 381.535 106 C 382.811 106, 382.870 105.619, 381.889 103.750 C 381.240 102.513, 380.099 101.140, 379.354 100.700 C 378.609 100.260, 378 99.248, 378 98.450 C 378 97.653, 377.550 97, 377 97 C 376.450 97, 376 97.675, 376 98.500 M 333 103 C 333 103.550, 333.423 104, 333.941 104 C 334.459 104, 335.160 103.550, 335.500 103 C 335.840 102.450, 335.416 102, 334.559 102 C 333.702 102, 333 102.450, 333 103 M 367.518 116.971 C 367.188 117.504, 367.608 119.276, 368.452 120.907 C 370.115 124.124, 369.615 127, 367.393 127 C 366.627 127, 366 127.450, 366 128 C 366 131.262, 372.124 125.711, 373.866 120.868 C 374.688 118.586, 374.488 118.088, 372.360 117.118 C 369.349 115.746, 368.295 115.714, 367.518 116.971 M 438.243 131.157 C 436.570 132.830, 436.676 134, 438.500 134 C 439.325 134, 440 134.481, 440 135.070 C 440 135.658, 441.012 135.995, 442.250 135.820 C 445.638 135.338, 445.422 130.608, 441.993 130.207 C 440.614 130.046, 438.927 130.473, 438.243 131.157" stroke="none" fill="black" fill-rule="evenodd"/>
</svg>